# AST/ASF file generated using VICON BodyLanguage
# -----------------------------------------------
:version 1.10
:name VICON
:units
  mass 1.0
  length 0.45
  angle deg
:documentation
   .ast/.asf automatically generated from VICON data using
   VICON BodyBuilder and BodyLanguage model FoxedUp or BRILLIANT.MOD
:root
   order TX TY TZ RX RY RZ
   axis XYZ
   position 0 0 0  
   orientation 0 0 0 
:bonedata
  begin
     id 1 
     name lhipjoint
     direction 0.584852 -0.759097 0.285867 
     length 2.43633 
     axis 0 0 0  XYZ
  end
  begin
     id 2 
     name lfemur
     direction 0.34202 -0.939693 0  
     length 7.14704  
     axis 0 0 20  XYZ
    dof rx ry rz
    limits (-160.0 20.0)
           (-70.0 70.0)
           (-60.0 70.0)
  end
  begin
     id 3 
     name ltibia
     direction 0.342022 -0.939692 0   
     length 7.68483   
     axis 0 0 20   XYZ
    dof rx
    limits (-10.0 170.0)
  end
  begin
     id 4 
     name lfoot
     direction 0.0999605 -0.274639 0.956337   
     length 2.40452   
     axis -90 7.62852e-016 20   XYZ
    dof rx rz
    limits (-45.0 90.0)
           (-70.0 20.0)
  end
  begin
     id 5 
     name ltoes
     direction 1.53468e-011 -4.21881e-011 1   
     length 1.19837   
     axis -90 7.62852e-016 20   XYZ
    dof rx
    limits (-90.0 20.0)
  end
  begin
     id 6 
     name rhipjoint
     direction -0.569886 -0.769002 0.289597   
     length 2.40495  
     axis 0 0 0  XYZ 
  end
  begin
     id 7 
     name rfemur
     direction -0.34202 -0.939693 0   
     length 7.45086   
     axis 0 0 -20   XYZ
    dof rx ry rz
    limits (-160.0 20.0)
           (-70.0 70.0)
           (-70.0 60.0)
  end
  begin
     id 8 
     name rtibia
     direction -0.34202 -0.939693 0   
     length 7.76831   
     axis 0 0 -20   XYZ
    dof rx
    limits (-10.0 170.0)
 end
 begin
     id 9 
     name rfoot
     direction -0.0798572 -0.219406 0.97236   
     length 2.35911  
     axis -90 -7.62852e-016 -20   XYZ
    dof rx rz
    limits (-45.0 90.0)
           (-20.0 70.0)
  end
  begin
     id 10 
     name rtoes
     direction -1.53469e-011 -4.21728e-011 1   
     length 1.18261   
     axis -90 -7.62852e-016 -20   XYZ
    dof rx
    limits (-90.0 20.0)
  end
  begin
     id 11 
     name lowerback
     direction 0.0242088 0.999437 0.0232389   
     length 2.1561   
     axis 0 0 0   XYZ
    dof rx ry rz
    limits (-20.0 45.0)
           (-30.0 30.0)
           (-30.0 30.0)
  end
  begin
     id 12 
     name upperback
     direction -0.0356893 0.999013 -0.0264323   
     length 2.14431   
     axis 0 0 0   XYZ
    dof rx ry rz
    limits (-20.0 45.0)
           (-30.0 30.0)
           (-30.0 30.0)
  end
  begin
     id 13 
     name thorax
     direction -0.0472163 0.998194 -0.0371284   
     length 2.16169   
     axis 0 0 0   XYZ
    dof rx ry rz
    limits (-20.0 45.0)
           (-30.0 30.0)
           (-30.0 30.0)
  end
  begin
     id 14 
     name lowerneck
     direction 0.00863244 0.999921 0.00911972   
     length 1.58651   
     axis 0 0 0   XYZ
    dof rx ry rz
    limits (-20.0 45.0)
           (-30.0 30.0)
           (-30.0 30.0)
  end
  begin
     id 15 
     name upperneck
     direction 0.149523 0.979068 -0.138086   
     length 1.57486   
     axis 0 0 0   XYZ
    dof rx ry rz
    limits (-20.0 45.0)
           (-30.0 30.0)
           (-30.0 30.0)
  end
  begin
     id 16
     name head
     direction 0.0445219 0.997708 -0.0509576  
     length 1.6019  
     axis 0 0 0   XYZ
    dof rx ry rz
    limits (-20.0 45.0)
           (-30.0 30.0)
           (-30.0 30.0)
  end
  begin
     id 17 
     name lclavicle
     direction 0.911271 0.381667 -0.154644  
     length 3.80848  
     axis 0 0 0   XYZ
    dof ry rz
    limits (-20.0 10.0)
           (0.0 20.0)
  end
  begin
     id 18 
     name lhumerus
     direction 1 -4.49003e-011 2.1308e-027   
     length 5.19069   
     axis 180 -30 -90   XYZ
    dof rx ry rz
    limits (-60.0 90.0)
           (-90.0 90.0)
           (-90.0 90.0)
  end
  begin
     id 19
     name lradius
     direction 1 -4.48914e-011 4.01554e-027   
     length 3.30016   
     axis 180 -30 -90   XYZ
    dof rx
    limits (-10.0 170.0)
  end
  begin
     id 20
     name lwrist
     direction 1 -4.49003e-011 1.1934e-026   
     length 1.65008   
     axis -8.46377e-015 90 90   XYZ
    dof ry
    limits (-180.0 0.0)
 end
  begin
     id 21 
     name lhand
     direction 1 -4.49034e-011 2.38659e-026   
     length 0.707698   
     axis -1.52313e-014 90 90   XYZ
    dof rx rz
    limits (-90.0 90.0)
           (-45.0 45.0)
  end
  begin
     id 22 
     name lfingers
     direction 1 -4.48691e-011 4.77775e-026   
     length 0.570564   
     axis -3.04623e-014 90 90   XYZ
    dof rx
    limits (0.0 90.0)
  end
  begin
     id 23
     name lthumb
     direction 0.707107 -6.34832e-011 0.707107   
     length 0.819219   
     axis -90 45 -1.62303e-014   XYZ
    dof rx rz
    limits (-45.0 45.0)
           (-45.0 45.0)
  end
  begin
     id 24 
     name rclavicle
     direction -0.815579 0.573708 -0.0754329   
     length 3.54371  
     axis 0 0 0   XYZ 
    dof ry rz
    limits (-10.0 20.0)
           (-20.0 0.0)
  end
  begin
     id 25 
     name rhumerus
     direction -1 -4.48956e-011 3.05351e-028  
     length 5.23924   
     axis 180 30 90   XYZ
    dof rx ry rz
    limits (-90.0 60.0)
           (-90.0 90.0)
           (-90.0 90.0)
  end
  begin
     id 26 
     name rradius
     direction -1 -4.49013e-011 3.53849e-027   
     length 3.32953   
     axis 180 30 90   XYZ
    dof rx
    limits (-10.0 170.0)
  end
  begin
     id 27 
     name rwrist
     direction -1 -4.48901e-011 1.19374e-026   
     length 1.66477   
     axis -8.46377e-015 -90 -90   XYZ
    dof ry
    limits (-180.0 0.0)
  end
  begin
     id 28
     name rhand
     direction -1 -4.48877e-011 2.38764e-026   
     length 0.607414   
     axis -1.52313e-014 -90 -90   XYZ
    dof rx rz
    limits (-90.0 90.0)
           (-45.0 45.0)
  end
  begin
     id 29
     name rfingers
     direction -1 -4.48882e-011 4.77521e-026   
     length 0.489712   
     axis -3.04623e-014 -90 -90   XYZ
    dof rx
    limits (0.0 90.0)
  end
  begin
     id 30
     name rthumb
     direction -0.707107 -6.34974e-011 0.707107   
     length 0.703132   
     axis -90 -45 1.62303e-014   XYZ
    dof rx rz
    limits (-45.0 45.0)
           (-45.0 45.0)
  end
:hierarchy
  begin
    root lhipjoint rhipjoint lowerback
    lhipjoint lfemur
    lfemur ltibia
    ltibia lfoot
    lfoot ltoes
    rhipjoint rfemur
    rfemur rtibia
    rtibia rfoot
    rfoot rtoes
    lowerback upperback
    upperback thorax
    thorax lowerneck lclavicle rclavicle
    lowerneck upperneck
    upperneck head
    lclavicle lhumerus
    lhumerus lradius
    lradius lwrist
    lwrist lhand lthumb
    lhand lfingers
    rclavicle rhumerus
    rhumerus rradius
    rradius rwrist
    rwrist rhand rthumb
    rhand rfingers
  end

#!OML:ASF E:\VariousWalksJay\Project 1\Capture day 1\Session 1\Actor2.ASF
:FULLY-SPECIFIED
:DEGREES
1
root 29.9696 14.8879 -28.2403 21.9761 -44.9106 -3.08987
lowerback 40.8378 -0.570342 4.73157
upperback 17.098 -0.231056 0.0614573
thorax -0.528486 -0.283688 -2.27331
lowerneck 3.23585 0.954065 6.9454
upperneck -29.3978 0.36611 -5.72992
head -9.75326 -0.203569 -3.22787
rclavicle -7.95139e-015 -1.09332e-014
rhumerus 2.93448 25.048 -68.4705
rradius 112.113
rwrist 6.83383
rhand -32.3799 -10.8283
rfingers 7.12502
rthumb -5.61557 -40.7339
lclavicle -7.95139e-015 -1.09332e-014
lhumerus 69.1126 -0.127427 41.7841
lradius 75.5865
lwrist 55.2443
lhand -35.1538 12.1908
lfingers 7.12502
lthumb -8.2932 42.008
rfemur -60.8215 2.94698 14.5466
rtibia 82.5758
rfoot -32.0188 -17.2492
rtoes -26.8171
lfemur -70.15 8.68139 -32.6291
ltibia 72.8718
lfoot -25.058 12.4293
ltoes 0.426854
2
root 29.969 14.8918 -28.2391 22.1052 -44.8591 -3.18533
lowerback 40.7884 -0.575145 4.74464
upperback 17.1129 -0.232778 0.104249
thorax -0.497076 -0.286001 -2.23489
lowerneck 3.2103 0.98025 6.91877
upperneck -29.4427 0.393017 -5.74385
head -9.7626 -0.188077 -3.23137
rclavicle 5.1684e-015 2.38542e-014
rhumerus 3.01237 25.0583 -68.4132
rradius 112.062
rwrist 6.82491
rhand -32.4106 -10.7887
rfingers 7.12502
rthumb -5.64521 -40.6935
lclavicle 5.1684e-015 2.38542e-014
lhumerus 69.093 -0.0264293 41.7704
lradius 75.5867
lwrist 55.3171
lhand -35.1967 12.0717
lfingers 7.12502
lthumb -8.33462 41.8872
rfemur -60.7751 2.87889 14.6846
rtibia 82.4261
rfoot -31.9788 -17.5563
rtoes -27.505
lfemur -70.2003 8.66169 -32.5467
ltibia 72.8863
lfoot -25.1174 12.4167
ltoes 0.343175
3
root 29.9627 14.8822 -28.2354 22.2105 -44.9318 -3.35093
lowerback 40.8174 -0.512079 4.72017
upperback 17.1398 -0.170738 0.138677
thorax -0.471713 -0.26148 -2.20697
lowerneck 3.18529 0.967691 6.84323
upperneck -29.4976 0.370087 -5.70041
head -9.78038 -0.197861 -3.20167
rclavicle 1.78906e-015 -9.19379e-015
rhumerus 3.01573 25.0603 -68.3484
rradius 112.087
rwrist 6.80877
rhand -32.4388 -10.9802
rfingers 7.12502
rthumb -5.67236 -40.8843
lclavicle 1.78906e-015 -9.19379e-015
lhumerus 69.0666 -0.0298422 41.6989
lradius 75.6109
lwrist 55.2839
lhand -35.2189 12.2812
lfingers 7.12502
lthumb -8.35605 42.0959
rfemur -60.6983 2.94243 14.8236
rtibia 82.2975
rfoot -32.3037 -17.4105
rtoes -26.7458
lfemur -70.2466 8.89103 -32.5143
ltibia 72.8987
lfoot -25.1519 12.3036
ltoes 0.345834
4
root 29.961 14.9002 -28.2268 22.1258 -45.0618 -3.25123
lowerback 40.8614 -0.457603 4.56869
upperback 17.1583 -0.162773 0.115204
thorax -0.467002 -0.266056 -2.15683
lowerneck 3.11944 1.00552 6.83607
upperneck -29.4851 0.404615 -5.75655
head -9.75972 -0.175265 -3.22238
rclavicle -3.67752e-014 3.88624e-014
rhumerus 3.00237 25.1104 -68.3106
rradius 112.116
rwrist 6.81979
rhand -32.4086 -10.7778
rfingers 7.12502
rthumb -5.64321 -40.6827
lclavicle -3.67752e-014 3.88624e-014
lhumerus 69.0322 -0.0863274 41.9818
lradius 75.532
lwrist 55.0674
lhand -34.9269 12.4766
lfingers 7.12502
lthumb -8.07425 42.3023
rfemur -60.4979 2.92029 14.7417
rtibia 82.0371
rfoot -32.4253 -17.4057
rtoes -26.6912
lfemur -70.0661 8.93498 -32.6154
ltibia 72.7592
lfoot -25.2293 12.3677
ltoes 0.268245
5
root 29.9622 14.9146 -28.235 22.3545 -44.9073 -3.35353
lowerback 40.8257 -0.795311 4.42115
upperback 17.055 -0.601269 0.0740344
thorax -0.599609 -0.486163 -1.97514
lowerneck 3.25065 1.33581 6.14669
upperneck -29.4677 0.88849 -5.48485
head -9.74925 0.10789 -3.04873
rclavicle 4.24902e-015 8.66577e-015
rhumerus 3.60041 26.2298 -68.6003
rradius 111.672
rwrist 6.90335
rhand -32.659 -10.6903
rfingers 7.12502
rthumb -5.88497 -40.5886
lclavicle 4.24902e-015 8.66577e-015
lhumerus 68.1878 0.616688 41.6314
lradius 75.5326
lwrist 55.194
lhand -34.8229 12.5028
lfingers 7.12502
lthumb -7.97385 42.3324
rfemur -60.5239 2.83339 14.9233
rtibia 81.7944
rfoot -32.39 -17.6191
rtoes -26.9631
lfemur -70.1502 8.74184 -32.4284
ltibia 72.6282
lfoot -25.1844 12.4506
ltoes 0.0861649
6
root 29.9608 14.9247 -28.2354 22.4542 -44.8783 -3.39591
lowerback 40.8017 -0.872862 4.33635
upperback 17.0409 -0.720786 0.0742435
thorax -0.615909 -0.549368 -1.891
lowerneck 3.22402 1.45127 5.93429
upperneck -29.4549 1.04771 -5.41833
head -9.73069 0.200713 -3.00118
rclavicle -8.18496e-014 4.76027e-014
rhumerus 3.78678 26.5706 -68.6373
rradius 111.562
rwrist 6.89209
rhand -32.7747 -10.6583
rfingers 7.12502
rthumb -5.99665 -40.5534
lclavicle -8.18496e-014 4.76027e-014
lhumerus 67.9386 0.834821 41.6013
lradius 75.4997
lwrist 55.1672
lhand -34.7423 12.5556
lfingers 7.12502
lthumb -7.8961 42.3881
rfemur -60.4526 2.78803 15.0078
rtibia 81.5386
rfoot -32.4508 -17.6968
rtoes -26.9717
lfemur -70.1337 8.70474 -32.3709
ltibia 72.4788
lfoot -25.1621 12.4791
ltoes -0.00123277
7
root 29.9596 14.9367 -28.2359 22.5512 -44.8378 -3.44195
lowerback 40.7752 -0.944247 4.27078
upperback 17.0339 -0.826723 0.0794646
thorax -0.622281 -0.604957 -1.81615
lowerneck 3.17816 1.55432 5.75119
upperneck -29.4347 1.18904 -5.36057
head -9.70717 0.282472 -2.95979
rclavicle -1.05306e-013 8.94531e-015
rhumerus 3.95137 26.8633 -68.6558
rradius 111.479
rwrist 6.86931
rhand -32.8782 -10.6303
rfingers 7.12502
rthumb -6.0966 -40.5226
lclavicle -1.05306e-013 8.94531e-015
lhumerus 67.7305 1.03018 41.5754
lradius 75.4625
lwrist 55.138
lhand -34.6963 12.5799
lfingers 7.12502
lthumb -7.8517 42.4141
rfemur -60.3615 2.73919 15.0969
rtibia 81.2763
rfoot -32.5271 -17.7704
rtoes -26.9907
lfemur -70.1012 8.64608 -32.2954
ltibia 72.334
lfoot -25.154 12.5238
ltoes -0.086183
8
root 29.9582 14.949 -28.2364 22.6436 -44.7839 -3.48949
lowerback 40.7461 -1.00439 4.22616
upperback 17.0343 -0.91231 0.0928419
thorax -0.617997 -0.649736 -1.7505
lowerneck 3.11493 1.63893 5.60698
upperneck -29.4098 1.30354 -5.31647
head -9.68028 0.348293 -2.92727
rclavicle 6.36111e-015 5.18828e-014
rhumerus 4.08562 27.0882 -68.6503
rradius 111.425
rwrist 6.84086
rhand -32.9561 -10.6009
rfingers 7.12502
rthumb -6.17183 -40.491
lclavicle 6.36111e-015 5.18828e-014
lhumerus 67.577 1.1972 41.5462
lradius 75.4207
lwrist 55.1179
lhand -34.6913 12.564
lfingers 7.12502
lthumb -7.84686 42.3984
rfemur -60.2549 2.68702 15.189
rtibia 81.0065
rfoot -32.6111 -17.8481
rtoes -27.0477
lfemur -70.0603 8.57319 -32.209
ltibia 72.1948
lfoot -25.1534 12.5757
ltoes -0.172388
9
root 29.9566 14.9604 -28.237 22.7272 -44.7175 -3.53153
lowerback 40.7138 -1.05255 4.1947
upperback 17.0415 -0.979252 0.114438
thorax -0.603714 -0.684979 -1.68945
lowerneck 3.04757 1.703 5.49143
upperneck -29.3924 1.38945 -5.27746
head -9.65721 0.397409 -2.89917
rclavicle -2.65378e-014 -1.47846e-014
rhumerus 4.18848 27.2516 -68.6209
rradius 111.402
rwrist 6.80961
rhand -33.014 -10.5878
rfingers 7.12502
rthumb -6.22771 -40.4762
lclavicle -2.65378e-014 -1.47846e-014
lhumerus 67.4723 1.34238 41.4986
lradius 75.3796
lwrist 55.1104
lhand -34.7448 12.5173
lfingers 7.12502
lthumb -7.89846 42.3498
rfemur -60.1368 2.63146 15.2772
rtibia 80.7301
rfoot -32.7119 -17.92
rtoes -27.1148
lfemur -70.017 8.48921 -32.1201
ltibia 72.0602
lfoot -25.1531 12.6295
ltoes -0.258347
